<?xml version="1.0" standalone="no"?>
<!DOCTYPE svg PUBLIC "-//W3C//DTD SVG 20010904//EN"
 "http://www.w3.org/TR/2001/REC-SVG-20010904/DTD/svg10.dtd">
<svg version="1.0" xmlns="http://www.w3.org/2000/svg"
 width="1319.000000pt" height="1319.000000pt" viewBox="0 0 1319.000000 1319.000000"
 preserveAspectRatio="xMidYMid meet">
<metadata>
Created by potrace 1.11, written by Peter Selinger 2001-2013
</metadata>
<g transform="translate(0.000000,1319.000000) scale(0.100000,-0.100000)"
fill="#000000" stroke="none">
<path d="M6210 13174 c-954 -67 -1775 -288 -2589 -699 -1498 -755 -2653 -2058
-3226 -3635 -393 -1083 -494 -2274 -289 -3415 321 -1783 1361 -3351 2884
-4348 435 -284 976 -549 1465 -717 541 -186 1150 -304 1760 -341 234 -14 759
-6 975 16 618 61 1151 181 1688 381 1452 541 2659 1565 3435 2914 728 1268
1008 2771 791 4245 -294 1988 -1504 3751 -3261 4749 -813 461 -1685 736 -2643
832 -156 15 -843 28 -990 18z m900 -869 c1181 -113 2245 -557 3165 -1321 167
-139 560 -532 699 -699 689 -829 1121 -1779 1280 -2815 51 -331 60 -459 60
-865 1 -399 -5 -498 -50 -814 -99 -695 -327 -1374 -666 -1981 -872 -1558
-2431 -2634 -4180 -2884 -318 -46 -404 -51 -833 -51 -437 0 -558 8 -890 60
-1034 162 -2002 608 -2825 1302 -159 134 -513 490 -650 653 -773 919 -1221
1985 -1342 3195 -20 202 -17 878 5 1075 54 480 146 895 292 1320 365 1061
1078 2032 1990 2711 924 687 1998 1073 3155 1133 152 8 630 -4 790 -19z"/>
<path d="M6260 11403 c-19 -1 -87 -8 -150 -14 -418 -38 -885 -152 -1295 -314
-150 -59 -484 -221 -630 -305 -544 -312 -1058 -768 -1444 -1279 -501 -663
-827 -1460 -931 -2274 -73 -581 -45 -1144 85 -1712 44 -190 90 -288 182 -385
188 -200 466 -268 717 -176 34 12 218 113 410 224 l350 202 1 167 c2 188 21
304 76 460 184 522 664 892 1207 932 409 29 789 -105 1079 -382 203 -195 330
-415 401 -697 24 -96 26 -123 27 -305 0 -159 -4 -218 -19 -285 -63 -291 -193
-527 -401 -729 -354 -344 -842 -474 -1319 -351 -211 54 -385 144 -556 286
l-97 81 -309 -179 c-170 -99 -349 -199 -399 -223 -179 -85 -391 -139 -603
-153 l-103 -7 72 -105 c293 -426 685 -836 1094 -1142 710 -531 1548 -855 2440
-944 230 -22 660 -22 890 0 794 79 1536 340 2195 774 268 176 497 359 695 557
100 99 128 133 158 195 52 106 71 186 70 305 0 189 -63 337 -197 469 -74 72
-110 96 -406 266 l-325 188 -67 -59 c-205 -176 -438 -288 -698 -335 -138 -25
-364 -23 -496 4 -389 82 -693 285 -907 606 -228 341 -292 800 -165 1195 71
221 176 392 347 562 126 126 214 190 360 264 324 162 707 193 1050 83 388
-123 701 -406 863 -779 80 -185 126 -441 113 -625 l-7 -91 294 -168 c401 -231
461 -268 553 -340 117 -91 254 -239 337 -365 l73 -111 42 88 c420 871 572
1791 452 2733 -214 1688 -1321 3145 -2901 3821 -162 69 -519 192 -624 214
-137 29 -275 12 -409 -50 -139 -64 -253 -174 -319 -309 -64 -130 -66 -146 -66
-697 l0 -496 48 -18 c297 -112 586 -373 736 -666 204 -399 207 -868 9 -1264
-196 -389 -549 -659 -983 -752 -120 -25 -420 -25 -540 0 -569 122 -985 538
-1107 1107 -28 134 -26 421 5 560 93 413 356 758 723 949 52 27 115 57 142 66
l47 18 0 476 c0 262 5 519 10 571 22 211 69 375 158 553 l59 117 -31 -2 c-17
0 -47 -3 -66 -5z"/>
<path d="M6491 8844 c-92 -19 -163 -57 -237 -126 -156 -146 -196 -370 -101
-561 46 -92 84 -138 158 -188 292 -198 682 -41 755 303 56 262 -115 517 -384
574 -81 17 -108 16 -191 -2z"/>
<path d="M4837 6009 c-238 -56 -401 -297 -367 -543 12 -83 60 -190 117 -255
142 -167 413 -211 609 -100 109 62 208 196 233 317 54 257 -94 501 -348 576
-59 17 -182 20 -244 5z"/>
<path d="M8089 6002 c-169 -56 -291 -183 -335 -347 -16 -59 -18 -172 -3 -235
26 -114 113 -235 216 -300 110 -70 275 -90 407 -50 133 42 256 156 307 287 31
80 38 228 14 309 -42 148 -150 266 -296 325 -77 31 -233 36 -310 11z"/>
</g>
</svg>
