<?xml version="1.0" standalone="no"?>
<!DOCTYPE svg PUBLIC "-//W3C//DTD SVG 20010904//EN"
 "http://www.w3.org/TR/2001/REC-SVG-20010904/DTD/svg10.dtd">
<svg version="1.0" xmlns="http://www.w3.org/2000/svg"
 width="260.000000pt" height="260.000000pt" viewBox="0 0 260.000000 260.000000"
 preserveAspectRatio="xMidYMid meet">
<metadata>
Created by potrace 1.11, written by Peter Selinger 2001-2013
</metadata>
<g transform="translate(0.000000,260.000000) scale(0.100000,-0.100000)"
fill="#000000" stroke="none">
<path d="M475 2069 c-33 -5 -66 -11 -72 -14 -17 -6 -19 -1229 -2 -1289 24 -87
166 -185 324 -222 104 -24 307 -22 408 5 108 28 206 82 267 147 213 225 193
686 -38 884 -145 124 -384 164 -564 95 -15 -6 -17 8 -20 149 -3 170 -10 191
-74 228 -36 20 -150 29 -229 17z m553 -688 c47 -24 66 -45 94 -106 30 -66 33
-235 5 -307 -44 -114 -161 -162 -295 -123 l-52 16 2 256 3 256 35 13 c55 20
164 17 208 -5z"/>
<path d="M1820 1157 c-91 -26 -164 -89 -203 -176 -29 -63 -28 -169 0 -232 71
-158 255 -229 405 -156 65 32 121 90 151 156 29 63 29 169 0 232 -61 136 -218
214 -353 176z"/>
</g>
</svg>
